<svg id="mermaid-svg" width="100%" xmlns="http://www.w3.org/2000/svg" class="flowchart" style="max-width: 435.484375px;" viewBox="0 0 435.484375 625.8953247070312" role="graphics-document document" aria-roledescription="flowchart-v2" xmlns:xlink="http://www.w3.org/1999/xlink"><style xmlns="http://www.w3.org/1999/xhtml">@import url("https://cdnjs.cloudflare.com/ajax/libs/font-awesome/6.7.2/css/all.min.css");</style><style>#mermaid-svg{font-family:"trebuchet ms",verdana,arial,sans-serif;font-size:16px;fill:#333;}@keyframes edge-animation-frame{from{stroke-dashoffset:0;}}@keyframes dash{to{stroke-dashoffset:0;}}#mermaid-svg .edge-animation-slow{stroke-dasharray:9,5!important;stroke-dashoffset:900;animation:dash 50s linear infinite;stroke-linecap:round;}#mermaid-svg .edge-animation-fast{stroke-dasharray:9,5!important;stroke-dashoffset:900;animation:dash 20s linear infinite;stroke-linecap:round;}#mermaid-svg .error-icon{fill:#552222;}#mermaid-svg .error-text{fill:#552222;stroke:#552222;}#mermaid-svg .edge-thickness-normal{stroke-width:1px;}#mermaid-svg .edge-thickness-thick{stroke-width:3.5px;}#mermaid-svg .edge-pattern-solid{stroke-dasharray:0;}#mermaid-svg .edge-thickness-invisible{stroke-width:0;fill:none;}#mermaid-svg .edge-pattern-dashed{stroke-dasharray:3;}#mermaid-svg .edge-pattern-dotted{stroke-dasharray:2;}#mermaid-svg .marker{fill:#333333;stroke:#333333;}#mermaid-svg .marker.cross{stroke:#333333;}#mermaid-svg svg{font-family:"trebuchet ms",verdana,arial,sans-serif;font-size:16px;}#mermaid-svg p{margin:0;}#mermaid-svg .label{font-family:"trebuchet ms",verdana,arial,sans-serif;color:#333;}#mermaid-svg .cluster-label text{fill:#333;}#mermaid-svg .cluster-label span{color:#333;}#mermaid-svg .cluster-label span p{background-color:transparent;}#mermaid-svg .label text,#mermaid-svg span{fill:#333;color:#333;}#mermaid-svg .node rect,#mermaid-svg .node circle,#mermaid-svg .node ellipse,#mermaid-svg .node polygon,#mermaid-svg .node path{fill:#ECECFF;stroke:#9370DB;stroke-width:1px;}#mermaid-svg .rough-node .label text,#mermaid-svg .node .label text,#mermaid-svg .image-shape .label,#mermaid-svg .icon-shape .label{text-anchor:middle;}#mermaid-svg .node .katex path{fill:#000;stroke:#000;stroke-width:1px;}#mermaid-svg .rough-node .label,#mermaid-svg .node .label,#mermaid-svg .image-shape .label,#mermaid-svg .icon-shape .label{text-align:center;}#mermaid-svg .node.clickable{cursor:pointer;}#mermaid-svg .root .anchor path{fill:#333333!important;stroke-width:0;stroke:#333333;}#mermaid-svg .arrowheadPath{fill:#333333;}#mermaid-svg .edgePath .path{stroke:#333333;stroke-width:2.0px;}#mermaid-svg .flowchart-link{stroke:#333333;fill:none;}#mermaid-svg .edgeLabel{background-color:rgba(232,232,232, 0.8);text-align:center;}#mermaid-svg .edgeLabel p{background-color:rgba(232,232,232, 0.8);}#mermaid-svg .edgeLabel rect{opacity:0.5;background-color:rgba(232,232,232, 0.8);fill:rgba(232,232,232, 0.8);}#mermaid-svg .labelBkg{background-color:rgba(232, 232, 232, 0.5);}#mermaid-svg .cluster rect{fill:#ffffde;stroke:#aaaa33;stroke-width:1px;}#mermaid-svg .cluster text{fill:#333;}#mermaid-svg .cluster span{color:#333;}#mermaid-svg div.mermaidTooltip{position:absolute;text-align:center;max-width:200px;padding:2px;font-family:"trebuchet ms",verdana,arial,sans-serif;font-size:12px;background:hsl(80, 100%, 96.2745098039%);border:1px solid #aaaa33;border-radius:2px;pointer-events:none;z-index:100;}#mermaid-svg .flowchartTitleText{text-anchor:middle;font-size:18px;fill:#333;}#mermaid-svg rect.text{fill:none;stroke-width:0;}#mermaid-svg .icon-shape,#mermaid-svg .image-shape{background-color:rgba(232,232,232, 0.8);text-align:center;}#mermaid-svg .icon-shape p,#mermaid-svg .image-shape p{background-color:rgba(232,232,232, 0.8);padding:2px;}#mermaid-svg .icon-shape rect,#mermaid-svg .image-shape rect{opacity:0.5;background-color:rgba(232,232,232, 0.8);fill:rgba(232,232,232, 0.8);}#mermaid-svg .label-icon{display:inline-block;height:1em;overflow:visible;vertical-align:-0.125em;}#mermaid-svg .node .label-icon path{fill:currentColor;stroke:revert;stroke-width:revert;}#mermaid-svg :root{--mermaid-font-family:"trebuchet ms",verdana,arial,sans-serif;}</style><g><marker id="mermaid-svg_flowchart-v2-pointEnd" class="marker flowchart-v2" viewBox="0 0 10 10" refX="5" refY="5" markerUnits="userSpaceOnUse" markerWidth="8" markerHeight="8" orient="auto"><path d="M 0 0 L 10 5 L 0 10 z" class="arrowMarkerPath" style="stroke-width: 1; stroke-dasharray: 1, 0;"/></marker><marker id="mermaid-svg_flowchart-v2-pointStart" class="marker flowchart-v2" viewBox="0 0 10 10" refX="4.5" refY="5" markerUnits="userSpaceOnUse" markerWidth="8" markerHeight="8" orient="auto"><path d="M 0 5 L 10 10 L 10 0 z" class="arrowMarkerPath" style="stroke-width: 1; stroke-dasharray: 1, 0;"/></marker><marker id="mermaid-svg_flowchart-v2-circleEnd" class="marker flowchart-v2" viewBox="0 0 10 10" refX="11" refY="5" markerUnits="userSpaceOnUse" markerWidth="11" markerHeight="11" orient="auto"><circle cx="5" cy="5" r="5" class="arrowMarkerPath" style="stroke-width: 1; stroke-dasharray: 1, 0;"/></marker><marker id="mermaid-svg_flowchart-v2-circleStart" class="marker flowchart-v2" viewBox="0 0 10 10" refX="-1" refY="5" markerUnits="userSpaceOnUse" markerWidth="11" markerHeight="11" orient="auto"><circle cx="5" cy="5" r="5" class="arrowMarkerPath" style="stroke-width: 1; stroke-dasharray: 1, 0;"/></marker><marker id="mermaid-svg_flowchart-v2-crossEnd" class="marker cross flowchart-v2" viewBox="0 0 11 11" refX="12" refY="5.2" markerUnits="userSpaceOnUse" markerWidth="11" markerHeight="11" orient="auto"><path d="M 1,1 l 9,9 M 10,1 l -9,9" class="arrowMarkerPath" style="stroke-width: 2; stroke-dasharray: 1, 0;"/></marker><marker id="mermaid-svg_flowchart-v2-crossStart" class="marker cross flowchart-v2" viewBox="0 0 11 11" refX="-1" refY="5.2" markerUnits="userSpaceOnUse" markerWidth="11" markerHeight="11" orient="auto"><path d="M 1,1 l 9,9 M 10,1 l -9,9" class="arrowMarkerPath" style="stroke-width: 2; stroke-dasharray: 1, 0;"/></marker><g class="root"><g class="clusters"><g class="cluster " id="workers" data-look="classic"><rect style="" x="8" y="370.859375" width="419.484375" height="104"/><g class="cluster-label " transform="translate(165.421875, 370.859375)"><foreignObject width="104.640625" height="24"><div xmlns="http://www.w3.org/1999/xhtml" style="display: table-cell; white-space: nowrap; line-height: 1.5; max-width: 200px; text-align: center;"><span class="nodeLabel "><p>Worker Agents</p></span></div></foreignObject></g></g></g><g class="edgePaths"><path d="M220.465,47.5L220.382,53.583C220.298,59.667,220.132,71.833,220.123,83.5C220.114,95.167,220.263,106.334,220.337,111.917L220.412,117.5" id="L_api_supervisor_0" class=" edge-thickness-normal edge-pattern-solid edge-thickness-normal edge-pattern-solid flowchart-link" style="" marker-end="url(#mermaid-svg_flowchart-v2-pointEnd)"/><path d="M181.401,258.295L171.183,270.889C160.965,283.483,140.529,308.671,130.312,327.432C120.094,346.193,120.094,358.526,120.164,368.276C120.234,378.026,120.375,385.193,120.445,388.777L120.515,392.36" id="L_supervisor_worker1_0" class=" edge-thickness-thick edge-pattern-solid edge-thickness-normal edge-pattern-solid flowchart-link" style="" marker-end="url(#mermaid-svg_flowchart-v2-pointEnd)"/><path d="M259.529,258.295L269.58,270.889C279.631,283.483,299.734,308.671,309.785,327.432C319.836,346.193,319.836,358.526,319.906,368.276C319.976,378.026,320.117,385.193,320.187,388.777L320.258,392.36" id="L_supervisor_worker2_0" class=" edge-thickness-thick edge-pattern-solid edge-thickness-normal edge-pattern-solid flowchart-link" style="" marker-end="url(#mermaid-svg_flowchart-v2-pointEnd)"/><path d="M120.594,450.359L120.51,454.443C120.427,458.526,120.26,466.693,120.177,476.943C120.094,487.193,120.094,499.526,129.282,513.855C138.471,528.185,156.848,544.51,166.036,552.673L175.224,560.835" id="L_worker1_db_0" class=" edge-thickness-normal edge-pattern-dotted edge-thickness-normal edge-pattern-solid flowchart-link" style="" marker-end="url(#mermaid-svg_flowchart-v2-pointEnd)"/><path d="M320.336,450.359L320.253,454.443C320.169,458.526,320.003,466.693,319.919,476.943C319.836,487.193,319.836,499.526,310.647,513.855C301.459,528.185,283.082,544.51,273.894,552.673L264.705,560.835" id="L_worker2_db_0" class=" edge-thickness-normal edge-pattern-dotted edge-thickness-normal edge-pattern-solid flowchart-link" style="" marker-end="url(#mermaid-svg_flowchart-v2-pointEnd)"/></g><g class="edgeLabels"><g class="edgeLabel" transform="translate(219.96484375, 84)"><g class="label" transform="translate(-26.6875, -12)"><foreignObject width="53.375" height="24"><div xmlns="http://www.w3.org/1999/xhtml" class="labelBkg" style="display: table-cell; white-space: nowrap; line-height: 1.5; max-width: 200px; text-align: center;"><span class="edgeLabel "><p>request</p></span></div></foreignObject></g></g><g class="edgeLabel" transform="translate(120.09375, 333.859375)"><g class="label" transform="translate(-23.125, -12)"><foreignObject width="46.25" height="24"><div xmlns="http://www.w3.org/1999/xhtml" class="labelBkg" style="display: table-cell; white-space: nowrap; line-height: 1.5; max-width: 200px; text-align: center;"><span class="edgeLabel "><p>assign</p></span></div></foreignObject></g></g><g class="edgeLabel" transform="translate(319.8359375, 333.859375)"><g class="label" transform="translate(-23.125, -12)"><foreignObject width="46.25" height="24"><div xmlns="http://www.w3.org/1999/xhtml" class="labelBkg" style="display: table-cell; white-space: nowrap; line-height: 1.5; max-width: 200px; text-align: center;"><span class="edgeLabel "><p>assign</p></span></div></foreignObject></g></g><g class="edgeLabel" transform="translate(120.09375, 511.859375)"><g class="label" transform="translate(-20.015625, -12)"><foreignObject width="40.03125" height="24"><div xmlns="http://www.w3.org/1999/xhtml" class="labelBkg" style="display: table-cell; white-space: nowrap; line-height: 1.5; max-width: 200px; text-align: center;"><span class="edgeLabel "><p>query</p></span></div></foreignObject></g></g><g class="edgeLabel" transform="translate(319.8359375, 511.859375)"><g class="label" transform="translate(-20.015625, -12)"><foreignObject width="40.03125" height="24"><div xmlns="http://www.w3.org/1999/xhtml" class="labelBkg" style="display: table-cell; white-space: nowrap; line-height: 1.5; max-width: 200px; text-align: center;"><span class="edgeLabel "><p>query</p></span></div></foreignObject></g></g></g><g class="nodes"><g class="node default agent-worker " id="flowchart-worker1-0" transform="translate(120.09375, 422.859375)"><g class="basic label-container outer-path"><path d="M-72.09375 -27 C-28.617919058329996 -27, 14.857911883340009 -27, 72.09375 -27 C72.09375 -27, 72.09375 -27, 72.09375 -27 C72.1887635727561 -26.996070209562046, 72.28377714551222 -26.992140419124087, 72.50664672736166 -26.982922465033347 C72.60345114201797 -26.97085580733035, 72.70025555667429 -26.95878914962735, 72.91672295140367 -26.931806517013612 C73.0526383263091 -26.903308059769287, 73.1885537012145 -26.874809602524962, 73.321177435704 -26.847001329696653 C73.40204977880009 -26.82292458998753, 73.4829221218962 -26.798847850278403, 73.71724734602341 -26.729086208503173 C73.84154866998604 -26.680583681384146, 73.96584999394867 -26.63208115426512, 74.10222712326485 -26.578866633275286 C74.24850993809368 -26.507353322729237, 74.3947927529225 -26.43584001218319, 74.47348696518537 -26.397368756032446 C74.55110896781153 -26.351116081887124, 74.62873097043767 -26.304863407741802, 74.82849079061214 -26.185832391312644 C74.91208515906438 -26.126147159432335, 74.99567952751661 -26.066461927552027, 75.16481356344833 -25.94570254698197 C75.25255317126185 -25.871390889822273, 75.34029277907536 -25.797079232662576, 75.4801578581287 -25.678619553365657 C75.57578532381049 -25.58299208768387, 75.67141278949228 -25.487364622002087, 75.77236955336566 -25.386407858128706 C75.85934244642063 -25.283719157341835, 75.94631533947558 -25.181030456554964, 76.03945254698196 -25.07106356344834 C76.13511154699464 -24.937084797832284, 76.23077054700731 -24.803106032216224, 76.27958239131264 -24.734740790612136 C76.34804960922541 -24.619837973275953, 76.41651682713818 -24.504935155939773, 76.49111875603245 -24.37973696518537 C76.5335430420398 -24.292956701107666, 76.57596732804713 -24.20617643702996, 76.67261663327528 -24.008477123264846 C76.71431306609611 -23.90161832410521, 76.75600949891694 -23.794759524945572, 76.82283620850318 -23.623497346023417 C76.85103013778009 -23.52879560694846, 76.879224067057 -23.434093867873504, 76.94075132969665 -23.227427435703994 C76.96788656154655 -23.098013580827406, 76.99502179339645 -22.96859972595082, 77.02555651701361 -22.82297295140367 C77.04243454664619 -22.687569443709283, 77.05931257627877 -22.552165936014898, 77.07667246503335 -22.412896727361662 C77.08202895739439 -22.28338868241691, 77.0873854497554 -22.153880637472156, 77.09375 -22 C77.09375 -22, 77.09375 -22, 77.09375 -22 C77.09375 -5.697568657440449, 77.09375 10.604862685119102, 77.09375 22 C77.09375 22, 77.09375 22, 77.09375 22 C77.08713951665892 22.159826751527145, 77.08052903331784 22.31965350305429, 77.07667246503335 22.412896727361662 C77.05667983375038 22.57328703729039, 77.0366872024674 22.733677347219125, 77.02555651701361 22.82297295140367 C76.99203900532832 22.9828252945515, 76.95852149364302 23.142677637699332, 76.94075132969665 23.227427435703994 C76.91665805264942 23.308355326739587, 76.89256477560221 23.389283217775176, 76.82283620850318 23.623497346023417 C76.77882951216593 23.736276843151813, 76.7348228158287 23.84905634028021, 76.67261663327528 24.008477123264846 C76.62945521351111 24.09676521854253, 76.58629379374693 24.185053313820212, 76.49111875603245 24.379736965185366 C76.43370023618404 24.476097674718822, 76.37628171633563 24.572458384252283, 76.27958239131264 24.734740790612133 C76.19477787176653 24.853516910433004, 76.10997335222044 24.972293030253876, 76.03945254698196 25.07106356344834 C75.97353580036362 25.148891319115354, 75.9076190537453 25.226719074782366, 75.77236955336566 25.386407858128706 C75.70950793092292 25.44926948057144, 75.64664630848019 25.512131103014173, 75.4801578581287 25.678619553365657 C75.35840962805037 25.78173504429207, 75.23666139797203 25.884850535218483, 75.16481356344833 25.94570254698197 C75.08742167533411 26.000959293019726, 75.0100297872199 26.05621603905748, 74.82849079061214 26.185832391312644 C74.7158320327904 26.252962439995386, 74.60317327496865 26.32009248867813, 74.47348696518537 26.397368756032446 C74.36286305751669 26.4514494891123, 74.25223914984802 26.505530222192156, 74.10222712326485 26.578866633275286 C73.99841494576634 26.61937427063497, 73.89460276826783 26.659881907994656, 73.71724734602341 26.729086208503173 C73.62735050240721 26.755849658423838, 73.53745365879101 26.7826131083445, 73.321177435704 26.847001329696653 C73.20041676665038 26.872322179278356, 73.07965609759674 26.89764302886006, 72.91672295140367 26.931806517013612 C72.79565875019547 26.946897153956698, 72.67459454898727 26.96198779089978, 72.50664672736166 26.982922465033347 C72.38323786437437 26.988026693362613, 72.25982900138708 26.99313092169188, 72.09375 27 C72.09375 27, 72.09375 27, 72.09375 27 C20.492630317031306 27, -31.108489365937388 27, -72.09375 27 C-72.09375 27, -72.09375 27, -72.09375 27 C-72.1912016104417 26.995969371577466, -72.2886532208834 26.991938743154932, -72.50664672736166 26.982922465033347 C-72.60862828600686 26.97021047700513, -72.71060984465205 26.957498488976906, -72.91672295140367 26.931806517013612 C-73.01422820247588 26.911361815811027, -73.1117334535481 26.890917114608442, -73.321177435704 26.847001329696653 C-73.41499556030479 26.819070463846415, -73.50881368490559 26.791139597996178, -73.71724734602341 26.729086208503173 C-73.80360644601987 26.695388783117647, -73.88996554601633 26.661691357732117, -74.10222712326485 26.578866633275286 C-74.19013550613356 26.535890843596594, -74.27804388900226 26.4929150539179, -74.47348696518537 26.397368756032446 C-74.59486958862858 26.325040411760487, -74.7162522120718 26.25271206748853, -74.82849079061214 26.185832391312644 C-74.89623467696634 26.137464186128653, -74.96397856332054 26.089095980944663, -75.16481356344833 25.94570254698197 C-75.26362550464697 25.862013101808653, -75.36243744584561 25.778323656635333, -75.4801578581287 25.67861955336566 C-75.58225127474353 25.576526136750843, -75.68434469135835 25.474432720136026, -75.77236955336566 25.386407858128706 C-75.84773583433008 25.29742305834191, -75.92310211529448 25.208438258555113, -76.03945254698196 25.07106356344834 C-76.10310197996563 24.981916985894905, -76.1667514129493 24.89277040834147, -76.27958239131264 24.734740790612133 C-76.32297203843999 24.66192356727313, -76.36636168556733 24.58910634393413, -76.49111875603245 24.37973696518537 C-76.55291067807624 24.253339568375875, -76.61470260012004 24.12694217156638, -76.67261663327528 24.00847712326485 C-76.70331110021266 23.92981394620442, -76.73400556715004 23.851150769143988, -76.82283620850318 23.623497346023417 C-76.86960213672462 23.466413362144177, -76.91636806494608 23.309329378264938, -76.94075132969665 23.227427435703994 C-76.97043405404501 23.085864031992926, -77.00011677839336 22.94430062828186, -77.02555651701361 22.82297295140367 C-77.03970319877538 22.709481603510646, -77.05384988053716 22.595990255617618, -77.07667246503335 22.412896727361662 C-77.08269001785473 22.267405714078787, -77.0887075706761 22.121914700795912, -77.09375 22 C-77.09375 22, -77.09375 22, -77.09375 22 C-77.09375 9.7030941550098, -77.09375 -2.5938116899803987, -77.09375 -22 C-77.09375 -22, -77.09375 -22, -77.09375 -22 C-77.08912696481934 -22.11177468529863, -77.08450392963867 -22.22354937059726, -77.07667246503335 -22.41289672736166 C-77.06144702723407 -22.53504236456493, -77.04622158943477 -22.657188001768205, -77.02555651701361 -22.82297295140367 C-76.99891572772451 -22.95002870157856, -76.9722749384354 -23.07708445175345, -76.94075132969665 -23.227427435703994 C-76.91232494984133 -23.322909962508422, -76.883898569986 -23.418392489312854, -76.82283620850318 -23.623497346023417 C-76.76861230240739 -23.76246130766588, -76.7143883963116 -23.90142526930834, -76.67261663327528 -24.008477123264846 C-76.62071961641601 -24.114634168008354, -76.56882259955674 -24.220791212751863, -76.49111875603245 -24.379736965185366 C-76.44058066742976 -24.464550821221312, -76.39004257882706 -24.54936467725726, -76.27958239131264 -24.734740790612133 C-76.22384968840765 -24.812799297795653, -76.16811698550265 -24.890857804979174, -76.03945254698196 -25.07106356344834 C-75.97503777128762 -25.147117945396403, -75.91062299559329 -25.223172327344464, -75.77236955336566 -25.386407858128706 C-75.66534165410721 -25.49343575738716, -75.55831375484874 -25.60046365664562, -75.4801578581287 -25.678619553365657 C-75.3985187235857 -25.747764373227042, -75.3168795890427 -25.816909193088428, -75.16481356344833 -25.945702546981966 C-75.03704680791577 -26.0369262570446, -74.90928005238321 -26.12814996710723, -74.82849079061214 -26.185832391312644 C-74.7420220267918 -26.23735659091354, -74.65555326297145 -26.288880790514433, -74.47348696518537 -26.397368756032446 C-74.34297729958053 -26.461171043789772, -74.21246763397568 -26.5249733315471, -74.10222712326485 -26.578866633275286 C-73.98712133084845 -26.623781052850674, -73.87201553843205 -26.668695472426062, -73.71724734602341 -26.729086208503173 C-73.62708413066598 -26.755928960727122, -73.53692091530856 -26.78277171295107, -73.321177435704 -26.847001329696653 C-73.22928396482568 -26.866269364329828, -73.13739049394736 -26.885537398963, -72.91672295140367 -26.931806517013612 C-72.78618486620395 -26.9480780723647, -72.65564678100422 -26.96434962771579, -72.50664672736167 -26.982922465033347 C-72.40194957059062 -26.98725277146879, -72.29725241381956 -26.99158307790423, -72.09375 -27 C-72.09375 -27, -72.09375 -27, -72.09375 -27" stroke="none" stroke-width="0" fill="#ECECFF" style=""/><path d="M-72.09375 -27 C-17.990905399460672 -27, 36.111939201078656 -27, 72.09375 -27 M-72.09375 -27 C-36.63836032442595 -27, -1.1829706488519065 -27, 72.09375 -27 M72.09375 -27 C72.09375 -27, 72.09375 -27, 72.09375 -27 M72.09375 -27 C72.09375 -27, 72.09375 -27, 72.09375 -27 M72.09375 -27 C72.18544308673006 -26.99620754587996, 72.27713617346011 -26.992415091759923, 72.50664672736166 -26.982922465033347 M72.09375 -27 C72.21703103081026 -26.994901058848686, 72.34031206162052 -26.989802117697373, 72.50664672736166 -26.982922465033347 M72.50664672736166 -26.982922465033347 C72.66918446575932 -26.962662157070874, 72.83172220415697 -26.942401849108396, 72.91672295140367 -26.931806517013612 M72.50664672736166 -26.982922465033347 C72.63722975248201 -26.966645307926996, 72.76781277760236 -26.95036815082064, 72.91672295140367 -26.931806517013612 M72.91672295140367 -26.931806517013612 C73.00729733641491 -26.91281506560151, 73.09787172142615 -26.89382361418941, 73.321177435704 -26.847001329696653 M72.91672295140367 -26.931806517013612 C73.06008247303528 -26.901747186340916, 73.2034419946669 -26.871687855668217, 73.321177435704 -26.847001329696653 M73.321177435704 -26.847001329696653 C73.47426933290345 -26.801423897173557, 73.62736123010288 -26.75584646465046, 73.71724734602341 -26.729086208503173 M73.321177435704 -26.847001329696653 C73.42574625005291 -26.815869844835646, 73.5303150644018 -26.784738359974636, 73.71724734602341 -26.729086208503173 M73.71724734602341 -26.729086208503173 C73.82687072070769 -26.68631103496518, 73.93649409539198 -26.64353586142719, 74.10222712326485 -26.578866633275286 M73.71724734602341 -26.729086208503173 C73.83063265840714 -26.68484312231976, 73.94401797079087 -26.640600036136345, 74.10222712326485 -26.578866633275286 M74.10222712326485 -26.578866633275286 C74.2254880461593 -26.518608039896034, 74.34874896905373 -26.45834944651678, 74.47348696518537 -26.397368756032446 M74.10222712326485 -26.578866633275286 C74.22763433234017 -26.51755878451799, 74.3530415414155 -26.4562509357607, 74.47348696518537 -26.397368756032446 M74.47348696518537 -26.397368756032446 C74.61408914217695 -26.31358804365073, 74.75469131916853 -26.229807331269015, 74.82849079061214 -26.185832391312644 M74.47348696518537 -26.397368756032446 C74.57066340196019 -26.339464168252135, 74.66783983873502 -26.28155958047183, 74.82849079061214 -26.185832391312644 M74.82849079061214 -26.185832391312644 C74.90951016861737 -26.127985667274004, 74.99052954662261 -26.070138943235364, 75.16481356344833 -25.94570254698197 M74.82849079061214 -26.185832391312644 C74.90181939907843 -26.1334767711817, 74.97514800754473 -26.08112115105076, 75.16481356344833 -25.94570254698197 M75.16481356344833 -25.94570254698197 C75.2599039303923 -25.86516511441732, 75.35499429733626 -25.784627681852665, 75.4801578581287 -25.678619553365657 M75.16481356344833 -25.94570254698197 C75.2600527046813 -25.8650391090221, 75.35529184591428 -25.784375671062232, 75.4801578581287 -25.678619553365657 M75.4801578581287 -25.678619553365657 C75.55850739033127 -25.600270021163087, 75.63685692253385 -25.521920488960514, 75.77236955336566 -25.386407858128706 M75.4801578581287 -25.678619553365657 C75.54443663765701 -25.61434077383735, 75.60871541718532 -25.55006199430904, 75.77236955336566 -25.386407858128706 M75.77236955336566 -25.386407858128706 C75.87485681443565 -25.265401377640227, 75.97734407550563 -25.144394897151752, 76.03945254698196 -25.07106356344834 M75.77236955336566 -25.386407858128706 C75.85619494293414 -25.287435407686008, 75.94002033250261 -25.18846295724331, 76.03945254698196 -25.07106356344834 M76.03945254698196 -25.07106356344834 C76.0955024672155 -24.992560765752643, 76.15155238744903 -24.914057968056948, 76.27958239131264 -24.734740790612136 M76.03945254698196 -25.07106356344834 C76.10192065038422 -24.983571540919343, 76.16438875378647 -24.89607951839034, 76.27958239131264 -24.734740790612136 M76.27958239131264 -24.734740790612136 C76.34371659980812 -24.62710970133455, 76.4078508083036 -24.51947861205696, 76.49111875603245 -24.37973696518537 M76.27958239131264 -24.734740790612136 C76.32265269216477 -24.66245949947319, 76.3657229930169 -24.590178208334244, 76.49111875603245 -24.37973696518537 M76.49111875603245 -24.37973696518537 C76.56086031173878 -24.23707833280819, 76.63060186744511 -24.09441970043101, 76.67261663327528 -24.008477123264846 M76.49111875603245 -24.37973696518537 C76.54073894325974 -24.27823724989435, 76.59035913048704 -24.17673753460333, 76.67261663327528 -24.008477123264846 M76.67261663327528 -24.008477123264846 C76.73111672956918 -23.858554225362493, 76.78961682586308 -23.70863132746014, 76.82283620850318 -23.623497346023417 M76.67261663327528 -24.008477123264846 C76.70341781773294 -23.929540452639255, 76.7342190021906 -23.850603782013664, 76.82283620850318 -23.623497346023417 M76.82283620850318 -23.623497346023417 C76.86207593770514 -23.49169341902341, 76.90131566690711 -23.3598894920234, 76.94075132969665 -23.227427435703994 M76.82283620850318 -23.623497346023417 C76.84789697712273 -23.53931970808166, 76.87295774574228 -23.455142070139903, 76.94075132969665 -23.227427435703994 M76.94075132969665 -23.227427435703994 C76.9714908778167 -23.08082380830969, 77.00223042593674 -22.93422018091539, 77.02555651701361 -22.82297295140367 M76.94075132969665 -23.227427435703994 C76.9698115307361 -23.0888329817923, 76.99887173177555 -22.950238527880607, 77.02555651701361 -22.82297295140367 M77.02555651701361 -22.82297295140367 C77.03982606675062 -22.708495898710225, 77.05409561648763 -22.594018846016784, 77.07667246503335 -22.412896727361662 M77.02555651701361 -22.82297295140367 C77.041934361082 -22.691582168023892, 77.05831220515039 -22.560191384644114, 77.07667246503335 -22.412896727361662 M77.07667246503335 -22.412896727361662 C77.08034613675306 -22.3240755342894, 77.08401980847277 -22.235254341217136, 77.09375 -22 M77.07667246503335 -22.412896727361662 C77.0831212608646 -22.2569792193988, 77.08957005669586 -22.10106171143594, 77.09375 -22 M77.09375 -22 C77.09375 -22, 77.09375 -22, 77.09375 -22 M77.09375 -22 C77.09375 -22, 77.09375 -22, 77.09375 -22 M77.09375 -22 C77.09375 -6.55900666976836, 77.09375 8.88198666046328, 77.09375 22 M77.09375 -22 C77.09375 -9.586789593996555, 77.09375 2.8264208120068908, 77.09375 22 M77.09375 22 C77.09375 22, 77.09375 22, 77.09375 22 M77.09375 22 C77.09375 22, 77.09375 22, 77.09375 22 M77.09375 22 C77.08692251422718 22.165073386598838, 77.08009502845437 22.33014677319768, 77.07667246503335 22.412896727361662 M77.09375 22 C77.08697838714016 22.163722504111107, 77.08020677428034 22.32744500822221, 77.07667246503335 22.412896727361662 M77.07667246503335 22.412896727361662 C77.05797437341843 22.562901630005353, 77.0392762818035 22.71290653264904, 77.02555651701361 22.82297295140367 M77.07667246503335 22.412896727361662 C77.06222272344064 22.528819364039194, 77.04777298184794 22.644742000716725, 77.02555651701361 22.82297295140367 M77.02555651701361 22.82297295140367 C76.99957621722184 22.946878682723792, 76.97359591743007 23.07078441404391, 76.94075132969665 23.227427435703994 M77.02555651701361 22.82297295140367 C77.0078511787756 22.90741358142854, 76.99014584053758 22.99185421145341, 76.94075132969665 23.227427435703994 M76.94075132969665 23.227427435703994 C76.91376593149354 23.31806979045936, 76.88678053329042 23.408712145214725, 76.82283620850318 23.623497346023417 M76.94075132969665 23.227427435703994 C76.91278217385928 23.321374174104427, 76.8848130180219 23.41532091250486, 76.82283620850318 23.623497346023417 M76.82283620850318 23.623497346023417 C76.7895089276601 23.70890784685573, 76.75618164681701 23.794318347688044, 76.67261663327528 24.008477123264846 M76.82283620850318 23.623497346023417 C76.77864660427726 23.736745595896785, 76.73445700005135 23.849993845770157, 76.67261663327528 24.008477123264846 M76.67261663327528 24.008477123264846 C76.62620321568816 24.103417286412476, 76.57978979810106 24.198357449560103, 76.49111875603245 24.379736965185366 M76.67261663327528 24.008477123264846 C76.62528219110722 24.10530127230544, 76.57794774893915 24.202125421346032, 76.49111875603245 24.379736965185366 M76.49111875603245 24.379736965185366 C76.44259258793966 24.46117438295069, 76.39406641984685 24.542611800716017, 76.27958239131264 24.734740790612133 M76.49111875603245 24.379736965185366 C76.40955746838334 24.51661446688828, 76.32799618073425 24.6534919685912, 76.27958239131264 24.734740790612133 M76.27958239131264 24.734740790612133 C76.22488497201645 24.811349292882866, 76.17018755272028 24.887957795153596, 76.03945254698196 25.07106356344834 M76.27958239131264 24.734740790612133 C76.20411268136388 24.84044269612022, 76.12864297141512 24.946144601628305, 76.03945254698196 25.07106356344834 M76.03945254698196 25.07106356344834 C75.96911426314895 25.154111818239926, 75.89877597931596 25.237160073031514, 75.77236955336566 25.386407858128706 M76.03945254698196 25.07106356344834 C75.96423792527615 25.159869299486864, 75.88902330357035 25.248675035525388, 75.77236955336566 25.386407858128706 M75.77236955336566 25.386407858128706 C75.69131237214303 25.467465039351342, 75.61025519092038 25.548522220573975, 75.4801578581287 25.678619553365657 M75.77236955336566 25.386407858128706 C75.67665609445794 25.482121317036423, 75.58094263555023 25.57783477594414, 75.4801578581287 25.678619553365657 M75.4801578581287 25.678619553365657 C75.37835739223601 25.764840149840108, 75.2765569263433 25.851060746314563, 75.16481356344833 25.94570254698197 M75.4801578581287 25.678619553365657 C75.39406354858524 25.751537713973274, 75.30796923904177 25.82445587458089, 75.16481356344833 25.94570254698197 M75.16481356344833 25.94570254698197 C75.07829245362745 26.007477432034793, 74.99177134380659 26.069252317087617, 74.82849079061214 26.185832391312644 M75.16481356344833 25.94570254698197 C75.04678330296014 26.02997453320023, 74.92875304247194 26.11424651941849, 74.82849079061214 26.185832391312644 M74.82849079061214 26.185832391312644 C74.694540989029 26.26564914835117, 74.56059118744587 26.345465905389695, 74.47348696518537 26.397368756032446 M74.82849079061214 26.185832391312644 C74.70744907451906 26.257957598895956, 74.58640735842599 26.33008280647927, 74.47348696518537 26.397368756032446 M74.47348696518537 26.397368756032446 C74.33580861476398 26.464675600248384, 74.19813026434258 26.531982444464326, 74.10222712326485 26.578866633275286 M74.47348696518537 26.397368756032446 C74.35048339572478 26.457501536984203, 74.22747982626417 26.51763431793596, 74.10222712326485 26.578866633275286 M74.10222712326485 26.578866633275286 C73.99804545226256 26.619518447447543, 73.89386378126027 26.660170261619804, 73.71724734602341 26.729086208503173 M74.10222712326485 26.578866633275286 C73.97770300726815 26.62745609411577, 73.85317889127145 26.67604555495626, 73.71724734602341 26.729086208503173 M73.71724734602341 26.729086208503173 C73.6109604591391 26.760729185719327, 73.50467357225477 26.792372162935486, 73.321177435704 26.847001329696653 M73.71724734602341 26.729086208503173 C73.60593275563814 26.762225997903727, 73.49461816525286 26.795365787304284, 73.321177435704 26.847001329696653 M73.321177435704 26.847001329696653 C73.18135389397924 26.876319243349663, 73.04153035225447 26.905637157002673, 72.91672295140367 26.931806517013612 M73.321177435704 26.847001329696653 C73.22408497300194 26.867359478279816, 73.12699251029989 26.88771762686298, 72.91672295140367 26.931806517013612 M72.91672295140367 26.931806517013612 C72.80664212678104 26.94552807749307, 72.69656130215841 26.959249637972526, 72.50664672736166 26.982922465033347 M72.91672295140367 26.931806517013612 C72.77803789499251 26.949093591267157, 72.63935283858135 26.9663806655207, 72.50664672736166 26.982922465033347 M72.50664672736166 26.982922465033347 C72.41460603460699 26.98672929624491, 72.32256534185233 26.990536127456473, 72.09375 27 M72.50664672736166 26.982922465033347 C72.37681824871306 26.9882922106304, 72.24698977006447 26.993661956227456, 72.09375 27 M72.09375 27 C72.09375 27, 72.09375 27, 72.09375 27 M72.09375 27 C72.09375 27, 72.09375 27, 72.09375 27 M72.09375 27 C23.96660923649153 27, -24.160531527016943 27, -72.09375 27 M72.09375 27 C26.646806177363104 27, -18.800137645273793 27, -72.09375 27 M-72.09375 27 C-72.09375 27, -72.09375 27, -72.09375 27 M-72.09375 27 C-72.09375 27, -72.09375 27, -72.09375 27 M-72.09375 27 C-72.22172719148199 26.994706824206546, -72.34970438296396 26.98941364841309, -72.50664672736166 26.982922465033347 M-72.09375 27 C-72.178096392271 26.99651140741046, -72.262442784542 26.99302281482092, -72.50664672736166 26.982922465033347 M-72.50664672736166 26.982922465033347 C-72.61242832565344 26.96973680255716, -72.71820992394521 26.956551140080975, -72.91672295140367 26.931806517013612 M-72.50664672736166 26.982922465033347 C-72.64494846015363 26.965683172019105, -72.78325019294562 26.948443879004863, -72.91672295140367 26.931806517013612 M-72.91672295140367 26.931806517013612 C-72.99985669148082 26.91437520478129, -73.08299043155796 26.89694389254897, -73.321177435704 26.847001329696653 M-72.91672295140367 26.931806517013612 C-73.05802918547995 26.902177715467197, -73.19933541955622 26.87254891392078, -73.321177435704 26.847001329696653 M-73.321177435704 26.847001329696653 C-73.42530964462206 26.815999827904164, -73.52944185354012 26.784998326111676, -73.71724734602341 26.729086208503173 M-73.321177435704 26.847001329696653 C-73.42457461004324 26.816218657179466, -73.52797178438246 26.78543598466228, -73.71724734602341 26.729086208503173 M-73.71724734602341 26.729086208503173 C-73.83128294405216 26.684589380073678, -73.94531854208093 26.640092551644184, -74.10222712326485 26.578866633275286 M-73.71724734602341 26.729086208503173 C-73.85408352432272 26.675692566044294, -73.99091970262201 26.622298923585415, -74.10222712326485 26.578866633275286 M-74.10222712326485 26.578866633275286 C-74.23714880591795 26.512907441812793, -74.37207048857107 26.446948250350296, -74.47348696518537 26.397368756032446 M-74.10222712326485 26.578866633275286 C-74.24888414754393 26.507170382876343, -74.39554117182303 26.4354741324774, -74.47348696518537 26.397368756032446 M-74.47348696518537 26.397368756032446 C-74.55170988634401 26.350758012162938, -74.62993280750264 26.304147268293434, -74.82849079061214 26.185832391312644 M-74.47348696518537 26.397368756032446 C-74.55811072605022 26.34694393956533, -74.64273448691506 26.29651912309822, -74.82849079061214 26.185832391312644 M-74.82849079061214 26.185832391312644 C-74.95272745562526 26.09712911743623, -75.0769641206384 26.00842584355981, -75.16481356344833 25.94570254698197 M-74.82849079061214 26.185832391312644 C-74.93435367457045 26.110247744959583, -75.04021655852875 26.034663098606522, -75.16481356344833 25.94570254698197 M-75.16481356344833 25.94570254698197 C-75.25177651626191 25.872048683052995, -75.3387394690755 25.798394819124024, -75.4801578581287 25.67861955336566 M-75.16481356344833 25.94570254698197 C-75.2574410942967 25.867251030187155, -75.35006862514504 25.788799513392345, -75.4801578581287 25.67861955336566 M-75.4801578581287 25.67861955336566 C-75.58358828567836 25.57518912581601, -75.68701871322801 25.471758698266356, -75.77236955336566 25.386407858128706 M-75.4801578581287 25.67861955336566 C-75.54078804816622 25.61798936332815, -75.60141823820372 25.557359173290642, -75.77236955336566 25.386407858128706 M-75.77236955336566 25.386407858128706 C-75.86027715791266 25.2826155455686, -75.94818476245965 25.17882323300849, -76.03945254698196 25.07106356344834 M-75.77236955336566 25.386407858128706 C-75.83270451064773 25.315170508677628, -75.8930394679298 25.243933159226554, -76.03945254698196 25.07106356344834 M-76.03945254698196 25.07106356344834 C-76.1122996435876 24.969034856472046, -76.18514674019326 24.86700614949575, -76.27958239131264 24.734740790612133 M-76.03945254698196 25.07106356344834 C-76.08828508089398 25.002669344247114, -76.137117614806 24.934275125045886, -76.27958239131264 24.734740790612133 M-76.27958239131264 24.734740790612133 C-76.32973616538244 24.650571897580665, -76.37988993945223 24.566403004549198, -76.49111875603245 24.37973696518537 M-76.27958239131264 24.734740790612133 C-76.34641724175131 24.62257743936527, -76.41325209218998 24.510414088118406, -76.49111875603245 24.37973696518537 M-76.49111875603245 24.37973696518537 C-76.56264309582986 24.23343158966228, -76.63416743562728 24.08712621413919, -76.67261663327528 24.00847712326485 M-76.49111875603245 24.37973696518537 C-76.55221529839929 24.254761990240322, -76.61331184076613 24.12978701529527, -76.67261663327528 24.00847712326485 M-76.67261663327528 24.00847712326485 C-76.71313227080459 23.904644443088756, -76.75364790833389 23.80081176291266, -76.82283620850318 23.623497346023417 M-76.67261663327528 24.00847712326485 C-76.71027949882495 23.91195547109276, -76.74794236437462 23.81543381892067, -76.82283620850318 23.623497346023417 M-76.82283620850318 23.623497346023417 C-76.86561356692121 23.479810731950106, -76.90839092533926 23.336124117876796, -76.94075132969665 23.227427435703994 M-76.82283620850318 23.623497346023417 C-76.85902193060218 23.501951648054124, -76.89520765270117 23.380405950084832, -76.94075132969665 23.227427435703994 M-76.94075132969665 23.227427435703994 C-76.97045259853505 23.085775589264458, -77.00015386737344 22.944123742824925, -77.02555651701361 22.82297295140367 M-76.94075132969665 23.227427435703994 C-76.96978301956464 23.088968957804074, -76.99881470943262 22.95051047990415, -77.02555651701361 22.82297295140367 M-77.02555651701361 22.82297295140367 C-77.04264780837289 22.685858557635434, -77.05973909973217 22.5487441638672, -77.07667246503335 22.412896727361662 M-77.02555651701361 22.82297295140367 C-77.04446170045426 22.67130666053939, -77.06336688389493 22.51964036967511, -77.07667246503335 22.412896727361662 M-77.07667246503335 22.412896727361662 C-77.08250897827598 22.271782847531075, -77.08834549151862 22.130668967700487, -77.09375 22 M-77.07667246503335 22.412896727361662 C-77.08297376435638 22.260545356177968, -77.08927506367942 22.108193984994273, -77.09375 22 M-77.09375 22 C-77.09375 22, -77.09375 22, -77.09375 22 M-77.09375 22 C-77.09375 22, -77.09375 22, -77.09375 22 M-77.09375 22 C-77.09375 5.134245439033929, -77.09375 -11.731509121932142, -77.09375 -22 M-77.09375 22 C-77.09375 9.918654781639734, -77.09375 -2.1626904367205313, -77.09375 -22 M-77.09375 -22 C-77.09375 -22, -77.09375 -22, -77.09375 -22 M-77.09375 -22 C-77.09375 -22, -77.09375 -22, -77.09375 -22 M-77.09375 -22 C-77.08722299699113 -22.15780838318327, -77.08069599398226 -22.315616766366535, -77.07667246503335 -22.41289672736166 M-77.09375 -22 C-77.08970238698787 -22.097862259957324, -77.08565477397573 -22.195724519914645, -77.07667246503335 -22.41289672736166 M-77.07667246503335 -22.41289672736166 C-77.06063430608643 -22.54156239661627, -77.04459614713949 -22.670228065870884, -77.02555651701361 -22.82297295140367 M-77.07667246503335 -22.41289672736166 C-77.06368049793663 -22.51712441003798, -77.05068853083992 -22.6213520927143, -77.02555651701361 -22.82297295140367 M-77.02555651701361 -22.82297295140367 C-77.00829907255216 -22.90527747805853, -76.9910416280907 -22.98758200471339, -76.94075132969665 -23.227427435703994 M-77.02555651701361 -22.82297295140367 C-76.99398451782623 -22.973546719986178, -76.96241251863886 -23.124120488568682, -76.94075132969665 -23.227427435703994 M-76.94075132969665 -23.227427435703994 C-76.89409554769739 -23.384141444944667, -76.84743976569813 -23.54085545418534, -76.82283620850318 -23.623497346023417 M-76.94075132969665 -23.227427435703994 C-76.91166235909924 -23.325135565579036, -76.88257338850183 -23.422843695454073, -76.82283620850318 -23.623497346023417 M-76.82283620850318 -23.623497346023417 C-76.78896476408376 -23.710302418582376, -76.75509331966434 -23.797107491141336, -76.67261663327528 -24.008477123264846 M-76.82283620850318 -23.623497346023417 C-76.77449225677758 -23.747392276082003, -76.72614830505198 -23.87128720614059, -76.67261663327528 -24.008477123264846 M-76.67261663327528 -24.008477123264846 C-76.62953278102994 -24.096606551646705, -76.5864489287846 -24.184735980028563, -76.49111875603245 -24.379736965185366 M-76.67261663327528 -24.008477123264846 C-76.60196128709096 -24.153004943940882, -76.53130594090662 -24.29753276461692, -76.49111875603245 -24.379736965185366 M-76.49111875603245 -24.379736965185366 C-76.42286482171997 -24.4942818464565, -76.35461088740749 -24.60882672772763, -76.27958239131264 -24.734740790612133 M-76.49111875603245 -24.379736965185366 C-76.40727677673834 -24.52044196132248, -76.32343479744424 -24.661146957459593, -76.27958239131264 -24.734740790612133 M-76.27958239131264 -24.734740790612133 C-76.19812667714434 -24.84882661667343, -76.11667096297604 -24.96291244273473, -76.03945254698196 -25.07106356344834 M-76.27958239131264 -24.734740790612133 C-76.19682881279088 -24.85064438880142, -76.11407523426911 -24.966547986990705, -76.03945254698196 -25.07106356344834 M-76.03945254698196 -25.07106356344834 C-75.9454533424173 -25.182048214558492, -75.85145413785263 -25.293032865668646, -75.77236955336566 -25.386407858128706 M-76.03945254698196 -25.07106356344834 C-75.96907623062525 -25.15415672315582, -75.89869991426853 -25.237249882863296, -75.77236955336566 -25.386407858128706 M-75.77236955336566 -25.386407858128706 C-75.70800297639238 -25.450774435101994, -75.64363639941908 -25.515141012075283, -75.4801578581287 -25.678619553365657 M-75.77236955336566 -25.386407858128706 C-75.70398075655366 -25.454796654940708, -75.63559195974166 -25.523185451752706, -75.4801578581287 -25.678619553365657 M-75.4801578581287 -25.678619553365657 C-75.35670547914991 -25.783178384785554, -75.23325310017113 -25.887737216205448, -75.16481356344833 -25.945702546981966 M-75.4801578581287 -25.678619553365657 C-75.40294969031417 -25.744011535841306, -75.32574152249964 -25.80940351831696, -75.16481356344833 -25.945702546981966 M-75.16481356344833 -25.945702546981966 C-75.04941032980237 -26.028098872086478, -74.9340070961564 -26.11049519719099, -74.82849079061214 -26.185832391312644 M-75.16481356344833 -25.945702546981966 C-75.0600007165038 -26.020537481317223, -74.95518786955924 -26.095372415652484, -74.82849079061214 -26.185832391312644 M-74.82849079061214 -26.185832391312644 C-74.72903763663452 -26.245093608081373, -74.62958448265691 -26.3043548248501, -74.47348696518537 -26.397368756032446 M-74.82849079061214 -26.185832391312644 C-74.69617059257757 -26.264678115404738, -74.563850394543 -26.343523839496836, -74.47348696518537 -26.397368756032446 M-74.47348696518537 -26.397368756032446 C-74.3482290075147 -26.45860364022406, -74.22297104984405 -26.51983852441567, -74.10222712326485 -26.578866633275286 M-74.47348696518537 -26.397368756032446 C-74.34684085413605 -26.459282267059137, -74.22019474308671 -26.521195778085833, -74.10222712326485 -26.578866633275286 M-74.10222712326485 -26.578866633275286 C-73.98913652918294 -26.622994720020476, -73.87604593510103 -26.66712280676567, -73.71724734602341 -26.729086208503173 M-74.10222712326485 -26.578866633275286 C-73.94884043299966 -26.638718305543254, -73.79545374273445 -26.698569977811218, -73.71724734602341 -26.729086208503173 M-73.71724734602341 -26.729086208503173 C-73.6009444253748 -26.763711088167412, -73.4846415047262 -26.798335967831655, -73.321177435704 -26.847001329696653 M-73.71724734602341 -26.729086208503173 C-73.56500351813395 -26.774411159853475, -73.41275969024449 -26.819736111203778, -73.321177435704 -26.847001329696653 M-73.321177435704 -26.847001329696653 C-73.19858478113198 -26.8727063062471, -73.07599212655997 -26.898411282797547, -72.91672295140367 -26.931806517013612 M-73.321177435704 -26.847001329696653 C-73.2321033365843 -26.865678204237934, -73.1430292374646 -26.884355078779212, -72.91672295140367 -26.931806517013612 M-72.91672295140367 -26.931806517013612 C-72.79399166793752 -26.94710495554344, -72.67126038447137 -26.962403394073274, -72.50664672736167 -26.982922465033347 M-72.91672295140367 -26.931806517013612 C-72.82066577017413 -26.943780032167098, -72.72460858894459 -26.955753547320587, -72.50664672736167 -26.982922465033347 M-72.50664672736167 -26.982922465033347 C-72.36131253746224 -26.988933531591606, -72.21597834756281 -26.99494459814986, -72.09375 -27 M-72.50664672736167 -26.982922465033347 C-72.37652967121082 -26.988304146284182, -72.24641261505997 -26.99368582753502, -72.09375 -27 M-72.09375 -27 C-72.09375 -27, -72.09375 -27, -72.09375 -27 M-72.09375 -27 C-72.09375 -27, -72.09375 -27, -72.09375 -27" stroke="#9370DB" stroke-width="1.3" fill="none" stroke-dasharray="0 0" style=""/></g><g class="label" style="" transform="translate(-62.09375, -12)"><rect/><foreignObject width="124.1875" height="24"><div xmlns="http://www.w3.org/1999/xhtml" style="display: table-cell; white-space: nowrap; line-height: 1.5; max-width: 200px; text-align: center;"><span class="nodeLabel "><p>Research Worker</p></span></div></foreignObject></g></g><g class="node default agent-specialist " id="flowchart-worker2-1" transform="translate(319.8359375, 422.859375)"><g class="basic label-container outer-path"><path d="M-67.6484375 -27 C-27.37076118756893 -27, 12.906915124862138 -27, 67.6484375 -27 C67.6484375 -27, 67.6484375 -27, 67.6484375 -27 C67.77555826343405 -26.994742246332624, 67.90267902686811 -26.98948449266525, 68.06133422736166 -26.982922465033347 C68.21153862157021 -26.964199506820794, 68.36174301577877 -26.94547654860824, 68.47141045140367 -26.931806517013612 C68.60362143296041 -26.904084789374288, 68.73583241451713 -26.87636306173496, 68.875864935704 -26.847001329696653 C68.97681264633951 -26.81694789411961, 69.077760356975 -26.786894458542566, 69.27193484602341 -26.729086208503173 C69.3881780930598 -26.683727952757792, 69.5044213400962 -26.63836969701241, 69.65691462326485 -26.578866633275286 C69.73295119647644 -26.54169461768822, 69.808987769688 -26.504522602101154, 70.02817446518537 -26.397368756032446 C70.10259177450553 -26.353025664611135, 70.17700908382568 -26.30868257318982, 70.38317829061214 -26.185832391312644 C70.46755371706568 -26.12558949473813, 70.55192914351923 -26.065346598163615, 70.71950106344833 -25.94570254698197 C70.7935965819557 -25.882946843992137, 70.86769210046306 -25.820191141002304, 71.0348453581287 -25.678619553365657 C71.14244554924234 -25.571019362252024, 71.25004574035597 -25.46341917113839, 71.32705705336566 -25.386407858128706 C71.42754688318254 -25.267759740264335, 71.52803671299944 -25.149111622399968, 71.59414004698196 -25.07106356344834 C71.6886110991635 -24.93874862229219, 71.78308215134504 -24.806433681136046, 71.83426989131264 -24.734740790612136 C71.91115950787048 -24.6057033645895, 71.98804912442831 -24.476665938566857, 72.04580625603245 -24.37973696518537 C72.11442173490273 -24.239381759793073, 72.18303721377302 -24.099026554400776, 72.22730413327528 -24.008477123264846 C72.25813836620223 -23.92945575667118, 72.28897259912918 -23.850434390077517, 72.37752370850318 -23.623497346023417 C72.41803263983302 -23.4874302442255, 72.45854157116285 -23.351363142427587, 72.49543882969665 -23.227427435703994 C72.52783468402588 -23.072924521781733, 72.5602305383551 -22.91842160785947, 72.58024401701361 -22.82297295140367 C72.5909043777449 -22.73745051378931, 72.60156473847621 -22.651928076174947, 72.63135996503335 -22.412896727361662 C72.63743335293064 -22.26605574640704, 72.64350674082793 -22.119214765452423, 72.6484375 -22 C72.6484375 -22, 72.6484375 -22, 72.6484375 -22 C72.6484375 -5.399602968105718, 72.6484375 11.200794063788564, 72.6484375 22 C72.6484375 22, 72.6484375 22, 72.6484375 22 C72.64358586432742 22.11730173561199, 72.63873422865483 22.234603471223974, 72.63135996503335 22.412896727361662 C72.61694913226904 22.52850721908155, 72.60253829950473 22.644117710801435, 72.58024401701361 22.82297295140367 C72.55060701036791 22.964318317392795, 72.52097000372221 23.10566368338192, 72.49543882969665 23.227427435703994 C72.46577090029571 23.32708025391987, 72.43610297089475 23.42673307213575, 72.37752370850318 23.623497346023417 C72.31959269822947 23.77196180144947, 72.26166168795577 23.920426256875526, 72.22730413327528 24.008477123264846 C72.16807968522988 24.12962266806782, 72.10885523718447 24.250768212870792, 72.04580625603245 24.379736965185366 C71.98465880532251 24.482355628155574, 71.92351135461256 24.584974291125782, 71.83426989131264 24.734740790612133 C71.77988910757365 24.810905817192154, 71.72550832383466 24.88707084377218, 71.59414004698196 25.07106356344834 C71.51523692691117 25.164224301277088, 71.43633380684038 25.25738503910583, 71.32705705336566 25.386407858128706 C71.26797189288895 25.445493018605422, 71.20888673241222 25.504578179082138, 71.0348453581287 25.678619553365657 C70.93219557042336 25.765559488721745, 70.82954578271801 25.852499424077834, 70.71950106344833 25.94570254698197 C70.62538989788749 26.012896627672163, 70.53127873232663 26.08009070836236, 70.38317829061214 26.185832391312644 C70.30782251447062 26.23073468758073, 70.2324667383291 26.275636983848813, 70.02817446518537 26.397368756032446 C69.92329376044016 26.44864180828749, 69.81841305569493 26.499914860542535, 69.65691462326485 26.578866633275286 C69.53270281618144 26.627334230799654, 69.40849100909801 26.675801828324023, 69.27193484602341 26.729086208503173 C69.1405218713475 26.76820954615538, 69.0091088966716 26.807332883807582, 68.875864935704 26.847001329696653 C68.78649171422559 26.86574092360104, 68.69711849274718 26.884480517505427, 68.47141045140367 26.931806517013612 C68.3540558272442 26.946434755659794, 68.2367012030847 26.961062994305976, 68.06133422736166 26.982922465033347 C67.95263985876777 26.9874180973727, 67.8439454901739 26.991913729712053, 67.6484375 27 C67.6484375 27, 67.6484375 27, 67.6484375 27 C39.89536485309 27, 12.142292206180002 27, -67.6484375 27 C-67.6484375 27, -67.6484375 27, -67.6484375 27 C-67.74527833893124 26.995994633274, -67.84211917786249 26.991989266548003, -68.06133422736166 26.982922465033347 C-68.19035436181203 26.96684012204584, -68.3193744962624 26.95075777905834, -68.47141045140367 26.931806517013612 C-68.59157665899956 26.90661031289199, -68.71174286659543 26.881414108770365, -68.875864935704 26.847001329696653 C-69.01014745726505 26.80702369092256, -69.14442997882611 26.767046052148462, -69.27193484602341 26.729086208503173 C-69.35357660057502 26.697229497022168, -69.43521835512664 26.665372785541162, -69.65691462326485 26.578866633275286 C-69.73706091704592 26.539685497726403, -69.81720721082698 26.500504362177523, -70.02817446518537 26.397368756032446 C-70.16431925847058 26.316244067833768, -70.30046405175581 26.235119379635094, -70.38317829061214 26.185832391312644 C-70.45272834823668 26.136174604628348, -70.52227840586121 26.08651681794405, -70.71950106344833 25.94570254698197 C-70.78295091179221 25.89196326669038, -70.84640076013608 25.838223986398788, -71.0348453581287 25.67861955336566 C-71.15046338023349 25.563001531260873, -71.26608140233829 25.447383509156086, -71.32705705336566 25.386407858128706 C-71.41026645797021 25.28816269975861, -71.49347586257474 25.189917541388517, -71.59414004698196 25.07106356344834 C-71.66690048274675 24.969156232531635, -71.73966091851153 24.867248901614925, -71.83426989131264 24.734740790612133 C-71.89939269788549 24.625450619692774, -71.96451550445833 24.516160448773412, -72.04580625603245 24.37973696518537 C-72.1004664331697 24.267927785752544, -72.15512661030694 24.15611860631972, -72.22730413327528 24.00847712326485 C-72.2840177691187 23.863132531120783, -72.34073140496213 23.717787938976713, -72.37752370850318 23.623497346023417 C-72.42331479938532 23.469687783046677, -72.46910589026746 23.315878220069937, -72.49543882969665 23.227427435703994 C-72.51470842664278 23.135526513813495, -72.53397802358893 23.043625591922996, -72.58024401701361 22.82297295140367 C-72.59961430793942 22.667575349105768, -72.61898459886524 22.51217774680786, -72.63135996503335 22.412896727361662 C-72.6359973769655 22.30077444425973, -72.64063478889766 22.188652161157798, -72.6484375 22 C-72.6484375 22, -72.6484375 22, -72.6484375 22 C-72.6484375 12.149582969460505, -72.6484375 2.2991659389210106, -72.6484375 -22 C-72.6484375 -22, -72.6484375 -22, -72.6484375 -22 C-72.6429360129374 -22.13301369361599, -72.6374345258748 -22.26602738723198, -72.63135996503335 -22.41289672736166 C-72.61365712531817 -22.5549172502407, -72.595954285603 -22.69693777311974, -72.58024401701361 -22.82297295140367 C-72.54700225941045 -22.98151016302932, -72.5137605018073 -23.140047374654966, -72.49543882969665 -23.227427435703994 C-72.46276998879969 -23.337160137950637, -72.43010114790272 -23.446892840197275, -72.37752370850318 -23.623497346023417 C-72.31829810453812 -23.77527956073724, -72.25907250057305 -23.92706177545106, -72.22730413327528 -24.008477123264846 C-72.15925648602558 -24.147670810512135, -72.09120883877588 -24.286864497759424, -72.04580625603245 -24.379736965185366 C-71.98949317247354 -24.474242513257295, -71.93318008891464 -24.568748061329227, -71.83426989131264 -24.734740790612133 C-71.7539638181554 -24.847216444253245, -71.67365774499815 -24.959692097894358, -71.59414004698196 -25.07106356344834 C-71.49983003215412 -25.182415187542784, -71.40552001732628 -25.293766811637223, -71.32705705336566 -25.386407858128706 C-71.23162983764217 -25.4818350738522, -71.13620262191867 -25.577262289575692, -71.0348453581287 -25.678619553365657 C-70.93895123192533 -25.759837735297815, -70.84305710572195 -25.841055917229973, -70.71950106344833 -25.945702546981966 C-70.61210172157064 -26.02238420320412, -70.50470237969296 -26.099065859426275, -70.38317829061214 -26.185832391312644 C-70.29355222280938 -26.239237935729903, -70.20392615500663 -26.29264348014716, -70.02817446518537 -26.397368756032446 C-69.9233497849581 -26.448614419569576, -69.81852510473085 -26.499860083106707, -69.65691462326485 -26.578866633275286 C-69.51405264377578 -26.634611550654682, -69.37119066428671 -26.690356468034082, -69.27193484602341 -26.729086208503173 C-69.19070599578308 -26.75326908498771, -69.10947714554274 -26.77745196147225, -68.875864935704 -26.847001329696653 C-68.73459590397945 -26.876622330730207, -68.59332687225492 -26.906243331763758, -68.47141045140367 -26.931806517013612 C-68.31526760585999 -26.951269702413132, -68.15912476031632 -26.97073288781265, -68.06133422736167 -26.982922465033347 C-67.96492985168094 -26.986909779505773, -67.8685254760002 -26.990897093978198, -67.6484375 -27 C-67.6484375 -27, -67.6484375 -27, -67.6484375 -27" stroke="none" stroke-width="0" fill="#ECECFF" style=""/><path d="M-67.6484375 -27 C-25.34526161770082 -27, 16.957914264598358 -27, 67.6484375 -27 M-67.6484375 -27 C-39.60116903078717 -27, -11.553900561574338 -27, 67.6484375 -27 M67.6484375 -27 C67.6484375 -27, 67.6484375 -27, 67.6484375 -27 M67.6484375 -27 C67.6484375 -27, 67.6484375 -27, 67.6484375 -27 M67.6484375 -27 C67.80103106928986 -26.993688683289196, 67.95362463857971 -26.987377366578393, 68.06133422736166 -26.982922465033347 M67.6484375 -27 C67.81264933175234 -26.99320814839922, 67.97686116350468 -26.98641629679844, 68.06133422736166 -26.982922465033347 M68.06133422736166 -26.982922465033347 C68.15354036743874 -26.971428981658907, 68.24574650751582 -26.959935498284466, 68.47141045140367 -26.931806517013612 M68.06133422736166 -26.982922465033347 C68.17867564521886 -26.96829587255103, 68.29601706307605 -26.95366928006871, 68.47141045140367 -26.931806517013612 M68.47141045140367 -26.931806517013612 C68.57941596161645 -26.909160142995276, 68.68742147182923 -26.886513768976943, 68.875864935704 -26.847001329696653 M68.47141045140367 -26.931806517013612 C68.60912791234355 -26.90293020206305, 68.74684537328343 -26.874053887112492, 68.875864935704 -26.847001329696653 M68.875864935704 -26.847001329696653 C69.02060342463156 -26.803910814566404, 69.16534191355913 -26.760820299436155, 69.27193484602341 -26.729086208503173 M68.875864935704 -26.847001329696653 C68.97725184146938 -26.81681714006428, 69.07863874723478 -26.786632950431912, 69.27193484602341 -26.729086208503173 M69.27193484602341 -26.729086208503173 C69.39086472706151 -26.682679624917245, 69.50979460809961 -26.636273041331318, 69.65691462326485 -26.578866633275286 M69.27193484602341 -26.729086208503173 C69.37041013793078 -26.69066103036326, 69.46888542983814 -26.65223585222335, 69.65691462326485 -26.578866633275286 M69.65691462326485 -26.578866633275286 C69.78631780231056 -26.515605273835554, 69.91572098135629 -26.45234391439582, 70.02817446518537 -26.397368756032446 M69.65691462326485 -26.578866633275286 C69.74679447215902 -26.534927052584816, 69.83667432105318 -26.490987471894343, 70.02817446518537 -26.397368756032446 M70.02817446518537 -26.397368756032446 C70.1438411348212 -26.32844638094368, 70.25950780445703 -26.259524005854914, 70.38317829061214 -26.185832391312644 M70.02817446518537 -26.397368756032446 C70.14130030032264 -26.329960389680167, 70.2544261354599 -26.262552023327885, 70.38317829061214 -26.185832391312644 M70.38317829061214 -26.185832391312644 C70.48569288726767 -26.112638376144055, 70.5882074839232 -26.039444360975462, 70.71950106344833 -25.94570254698197 M70.38317829061214 -26.185832391312644 C70.45873557897302 -26.131885524321916, 70.5342928673339 -26.07793865733119, 70.71950106344833 -25.94570254698197 M70.71950106344833 -25.94570254698197 C70.80344032219371 -25.874609621294592, 70.8873795809391 -25.803516695607215, 71.0348453581287 -25.678619553365657 M70.71950106344833 -25.94570254698197 C70.81381877884982 -25.865819516892543, 70.90813649425131 -25.785936486803116, 71.0348453581287 -25.678619553365657 M71.0348453581287 -25.678619553365657 C71.1284356100827 -25.585029301411662, 71.2220258620367 -25.491439049457668, 71.32705705336566 -25.386407858128706 M71.0348453581287 -25.678619553365657 C71.12454050343251 -25.588924408061857, 71.2142356487363 -25.499229262758057, 71.32705705336566 -25.386407858128706 M71.32705705336566 -25.386407858128706 C71.39149045858323 -25.31033148034413, 71.4559238638008 -25.23425510255955, 71.59414004698196 -25.07106356344834 M71.32705705336566 -25.386407858128706 C71.4207260776156 -25.275813050179497, 71.51439510186555 -25.16521824223029, 71.59414004698196 -25.07106356344834 M71.59414004698196 -25.07106356344834 C71.66747367929959 -24.968353420808796, 71.74080731161722 -24.865643278169255, 71.83426989131264 -24.734740790612136 M71.59414004698196 -25.07106356344834 C71.66714392798721 -24.968815266257604, 71.74014780899246 -24.866566969066863, 71.83426989131264 -24.734740790612136 M71.83426989131264 -24.734740790612136 C71.8958661564 -24.63136891993175, 71.95746242148736 -24.52799704925136, 72.04580625603245 -24.37973696518537 M71.83426989131264 -24.734740790612136 C71.88034122562449 -24.657423115493323, 71.92641255993634 -24.58010544037451, 72.04580625603245 -24.37973696518537 M72.04580625603245 -24.37973696518537 C72.11800146190713 -24.232059311167454, 72.1901966677818 -24.084381657149542, 72.22730413327528 -24.008477123264846 M72.04580625603245 -24.37973696518537 C72.11553702020781 -24.23710040723762, 72.18526778438317 -24.094463849289866, 72.22730413327528 -24.008477123264846 M72.22730413327528 -24.008477123264846 C72.26619370469642 -23.908811693376563, 72.30508327611756 -23.80914626348828, 72.37752370850318 -23.623497346023417 M72.22730413327528 -24.008477123264846 C72.27723949458586 -23.880503759975475, 72.32717485589643 -23.752530396686105, 72.37752370850318 -23.623497346023417 M72.37752370850318 -23.623497346023417 C72.42279686931637 -23.47142747948154, 72.46807003012958 -23.319357612939665, 72.49543882969665 -23.227427435703994 M72.37752370850318 -23.623497346023417 C72.40777829067666 -23.521873995880387, 72.43803287285014 -23.42025064573736, 72.49543882969665 -23.227427435703994 M72.49543882969665 -23.227427435703994 C72.52176180534788 -23.101887408270567, 72.5480847809991 -22.976347380837144, 72.58024401701361 -22.82297295140367 M72.49543882969665 -23.227427435703994 C72.52556102221692 -23.083768112174113, 72.55568321473719 -22.940108788644235, 72.58024401701361 -22.82297295140367 M72.58024401701361 -22.82297295140367 C72.59668767961382 -22.691054140743802, 72.61313134221403 -22.559135330083933, 72.63135996503335 -22.412896727361662 M72.58024401701361 -22.82297295140367 C72.59166784573132 -22.7313256138085, 72.60309167444903 -22.639678276213335, 72.63135996503335 -22.412896727361662 M72.63135996503335 -22.412896727361662 C72.63501642838838 -22.32449159418777, 72.63867289174341 -22.236086461013876, 72.6484375 -22 M72.63135996503335 -22.412896727361662 C72.63783991175833 -22.256226060227903, 72.64431985848333 -22.099555393094143, 72.6484375 -22 M72.6484375 -22 C72.6484375 -22, 72.6484375 -22, 72.6484375 -22 M72.6484375 -22 C72.6484375 -22, 72.6484375 -22, 72.6484375 -22 M72.6484375 -22 C72.6484375 -11.404083932877763, 72.6484375 -0.8081678657555251, 72.6484375 22 M72.6484375 -22 C72.6484375 -10.360177011262335, 72.6484375 1.2796459774753295, 72.6484375 22 M72.6484375 22 C72.6484375 22, 72.6484375 22, 72.6484375 22 M72.6484375 22 C72.6484375 22, 72.6484375 22, 72.6484375 22 M72.6484375 22 C72.6445740143751 22.0934104701791, 72.64071052875018 22.186820940358203, 72.63135996503335 22.412896727361662 M72.6484375 22 C72.64408470841853 22.105240797479713, 72.63973191683705 22.21048159495943, 72.63135996503335 22.412896727361662 M72.63135996503335 22.412896727361662 C72.61894131990884 22.51252495099184, 72.60652267478432 22.612153174622012, 72.58024401701361 22.82297295140367 M72.63135996503335 22.412896727361662 C72.61123739638737 22.57432945605105, 72.59111482774138 22.73576218474044, 72.58024401701361 22.82297295140367 M72.58024401701361 22.82297295140367 C72.55284901451633 22.95362570930673, 72.52545401201904 23.08427846720979, 72.49543882969665 23.227427435703994 M72.58024401701361 22.82297295140367 C72.55969162069155 22.92099182405244, 72.53913922436949 23.019010696701205, 72.49543882969665 23.227427435703994 M72.49543882969665 23.227427435703994 C72.45639120682593 23.358586088912013, 72.41734358395519 23.48974474212003, 72.37752370850318 23.623497346023417 M72.49543882969665 23.227427435703994 C72.46835036356913 23.31841598951477, 72.44126189744162 23.409404543325543, 72.37752370850318 23.623497346023417 M72.37752370850318 23.623497346023417 C72.32263915080104 23.764154412628148, 72.2677545930989 23.90481147923288, 72.22730413327528 24.008477123264846 M72.37752370850318 23.623497346023417 C72.32280506820642 23.76372920276009, 72.26808642790965 23.90396105949676, 72.22730413327528 24.008477123264846 M72.22730413327528 24.008477123264846 C72.16367572163543 24.138631119586584, 72.10004730999557 24.268785115908326, 72.04580625603245 24.379736965185366 M72.22730413327528 24.008477123264846 C72.18097551281365 24.10324383111989, 72.13464689235201 24.198010538974934, 72.04580625603245 24.379736965185366 M72.04580625603245 24.379736965185366 C71.99067030394822 24.472267031750405, 71.93553435186398 24.56479709831545, 71.83426989131264 24.734740790612133 M72.04580625603245 24.379736965185366 C71.99968881836855 24.457132011711995, 71.95357138070466 24.534527058238623, 71.83426989131264 24.734740790612133 M71.83426989131264 24.734740790612133 C71.75325234023984 24.84821293107494, 71.67223478916705 24.96168507153775, 71.59414004698196 25.07106356344834 M71.83426989131264 24.734740790612133 C71.78157742803792 24.80854117725512, 71.7288849647632 24.882341563898105, 71.59414004698196 25.07106356344834 M71.59414004698196 25.07106356344834 C71.4925553081254 25.191004437973024, 71.39097056926886 25.310945312497708, 71.32705705336566 25.386407858128706 M71.59414004698196 25.07106356344834 C71.48830753981356 25.196019768541735, 71.38247503264515 25.32097597363513, 71.32705705336566 25.386407858128706 M71.32705705336566 25.386407858128706 C71.21954935673693 25.49391555475743, 71.11204166010822 25.60142325138615, 71.0348453581287 25.678619553365657 M71.32705705336566 25.386407858128706 C71.22957869103148 25.483886220462896, 71.13210032869728 25.581364582797086, 71.0348453581287 25.678619553365657 M71.0348453581287 25.678619553365657 C70.91687465294436 25.778535643909166, 70.79890394776001 25.87845173445268, 70.71950106344833 25.94570254698197 M71.0348453581287 25.678619553365657 C70.93333380059775 25.76459545693957, 70.83182224306678 25.85057136051348, 70.71950106344833 25.94570254698197 M70.71950106344833 25.94570254698197 C70.59169725491911 26.036952712375726, 70.46389344638989 26.128202877769485, 70.38317829061214 26.185832391312644 M70.71950106344833 25.94570254698197 C70.6509899721439 25.9946185259718, 70.58247888083949 26.043534504961627, 70.38317829061214 26.185832391312644 M70.38317829061214 26.185832391312644 C70.27277525108495 26.25161832364034, 70.16237221155775 26.317404255968036, 70.02817446518537 26.397368756032446 M70.38317829061214 26.185832391312644 C70.25160302416542 26.264234232525816, 70.1200277577187 26.342636073738987, 70.02817446518537 26.397368756032446 M70.02817446518537 26.397368756032446 C69.88368890765557 26.468003441023566, 69.73920335012576 26.538638126014682, 69.65691462326485 26.578866633275286 M70.02817446518537 26.397368756032446 C69.90698568360325 26.456614341251196, 69.78579690202113 26.515859926469943, 69.65691462326485 26.578866633275286 M69.65691462326485 26.578866633275286 C69.53318443725303 26.627146301674355, 69.40945425124119 26.675425970073427, 69.27193484602341 26.729086208503173 M69.65691462326485 26.578866633275286 C69.50310058853853 26.63888505586943, 69.34928655381219 26.698903478463578, 69.27193484602341 26.729086208503173 M69.27193484602341 26.729086208503173 C69.11886842973354 26.774656055030814, 68.96580201344365 26.82022590155846, 68.875864935704 26.847001329696653 M69.27193484602341 26.729086208503173 C69.11887336260719 26.7746545864507, 68.96581187919095 26.82022296439823, 68.875864935704 26.847001329696653 M68.875864935704 26.847001329696653 C68.77590889223065 26.86795990802688, 68.67595284875728 26.88891848635711, 68.47141045140367 26.931806517013612 M68.875864935704 26.847001329696653 C68.72963466927499 26.877662592254723, 68.58340440284597 26.908323854812796, 68.47141045140367 26.931806517013612 M68.47141045140367 26.931806517013612 C68.36788450675257 26.944711012556706, 68.26435856210148 26.957615508099803, 68.06133422736166 26.982922465033347 M68.47141045140367 26.931806517013612 C68.3860302329961 26.94244915013927, 68.30065001458853 26.95309178326493, 68.06133422736166 26.982922465033347 M68.06133422736166 26.982922465033347 C67.96469510298236 26.986919488783766, 67.86805597860307 26.99091651253418, 67.6484375 27 M68.06133422736166 26.982922465033347 C67.97014453572541 26.986694098578294, 67.87895484408917 26.99046573212324, 67.6484375 27 M67.6484375 27 C67.6484375 27, 67.6484375 27, 67.6484375 27 M67.6484375 27 C67.6484375 27, 67.6484375 27, 67.6484375 27 M67.6484375 27 C14.915783688518118 27, -37.81687012296376 27, -67.6484375 27 M67.6484375 27 C36.53327262777134 27, 5.418107755542678 27, -67.6484375 27 M-67.6484375 27 C-67.6484375 27, -67.6484375 27, -67.6484375 27 M-67.6484375 27 C-67.6484375 27, -67.6484375 27, -67.6484375 27 M-67.6484375 27 C-67.78024266351265 26.994548498112213, -67.9120478270253 26.98909699622443, -68.06133422736166 26.982922465033347 M-67.6484375 27 C-67.7386403102468 26.99626918417125, -67.82884312049359 26.9925383683425, -68.06133422736166 26.982922465033347 M-68.06133422736166 26.982922465033347 C-68.1604167479642 26.97057184172029, -68.25949926856677 26.95822121840723, -68.47141045140367 26.931806517013612 M-68.06133422736166 26.982922465033347 C-68.21733869875911 26.96347652795317, -68.37334317015656 26.944030590872988, -68.47141045140367 26.931806517013612 M-68.47141045140367 26.931806517013612 C-68.57835830514323 26.90938191023686, -68.68530615888277 26.886957303460107, -68.875864935704 26.847001329696653 M-68.47141045140367 26.931806517013612 C-68.56018544152467 26.91319235903414, -68.64896043164566 26.894578201054667, -68.875864935704 26.847001329696653 M-68.875864935704 26.847001329696653 C-68.97532109506079 26.81739194817475, -69.07477725441758 26.78778256665284, -69.27193484602341 26.729086208503173 M-68.875864935704 26.847001329696653 C-69.01341796818907 26.806050017634274, -69.15097100067416 26.765098705571894, -69.27193484602341 26.729086208503173 M-69.27193484602341 26.729086208503173 C-69.39833596894073 26.679764337289512, -69.52473709185803 26.630442466075852, -69.65691462326485 26.578866633275286 M-69.27193484602341 26.729086208503173 C-69.39087484468159 26.68267567700964, -69.50981484333977 26.63626514551611, -69.65691462326485 26.578866633275286 M-69.65691462326485 26.578866633275286 C-69.80045593493458 26.508693561956992, -69.9439972466043 26.438520490638695, -70.02817446518537 26.397368756032446 M-69.65691462326485 26.578866633275286 C-69.74553375714083 26.535543378601723, -69.83415289101681 26.49222012392816, -70.02817446518537 26.397368756032446 M-70.02817446518537 26.397368756032446 C-70.16848678172421 26.313760762990793, -70.30879909826307 26.23015276994914, -70.38317829061214 26.185832391312644 M-70.02817446518537 26.397368756032446 C-70.16763722104183 26.314266991277616, -70.30709997689827 26.231165226522787, -70.38317829061214 26.185832391312644 M-70.38317829061214 26.185832391312644 C-70.46016829216171 26.13086258676681, -70.5371582937113 26.075892782220972, -70.71950106344833 25.94570254698197 M-70.38317829061214 26.185832391312644 C-70.49646553550511 26.10494685313932, -70.60975278039808 26.024061314965994, -70.71950106344833 25.94570254698197 M-70.71950106344833 25.94570254698197 C-70.80909962398322 25.869816437180543, -70.8986981845181 25.793930327379115, -71.0348453581287 25.67861955336566 M-70.71950106344833 25.94570254698197 C-70.82460002262114 25.85668826920573, -70.92969898179395 25.76767399142949, -71.0348453581287 25.67861955336566 M-71.0348453581287 25.67861955336566 C-71.13607793356778 25.577386977926594, -71.23731050900683 25.47615440248753, -71.32705705336566 25.386407858128706 M-71.0348453581287 25.67861955336566 C-71.1131702976033 25.60029461389107, -71.19149523707789 25.52196967441648, -71.32705705336566 25.386407858128706 M-71.32705705336566 25.386407858128706 C-71.40476462621017 25.29465870024269, -71.48247219905467 25.20290954235667, -71.59414004698196 25.07106356344834 M-71.32705705336566 25.386407858128706 C-71.40137295166173 25.29866324281494, -71.4756888499578 25.210918627501172, -71.59414004698196 25.07106356344834 M-71.59414004698196 25.07106356344834 C-71.65258422260199 24.989207402439117, -71.71102839822201 24.907351241429893, -71.83426989131264 24.734740790612133 M-71.59414004698196 25.07106356344834 C-71.65486970605964 24.986006383690732, -71.71559936513731 24.900949203933127, -71.83426989131264 24.734740790612133 M-71.83426989131264 24.734740790612133 C-71.88747263954244 24.645455058724806, -71.94067538777222 24.55616932683748, -72.04580625603245 24.37973696518537 M-71.83426989131264 24.734740790612133 C-71.88738776068286 24.64559750383059, -71.94050563005305 24.556454217049044, -72.04580625603245 24.37973696518537 M-72.04580625603245 24.37973696518537 C-72.10352945974392 24.261662264750203, -72.16125266345539 24.143587564315037, -72.22730413327528 24.00847712326485 M-72.04580625603245 24.37973696518537 C-72.08846535370942 24.292476386160317, -72.13112445138641 24.20521580713526, -72.22730413327528 24.00847712326485 M-72.22730413327528 24.00847712326485 C-72.28503615792586 23.86052262428587, -72.34276818257645 23.712568125306888, -72.37752370850318 23.623497346023417 M-72.22730413327528 24.00847712326485 C-72.2861153251798 23.85775695564121, -72.34492651708429 23.707036788017568, -72.37752370850318 23.623497346023417 M-72.37752370850318 23.623497346023417 C-72.40853121800788 23.519344957555745, -72.43953872751258 23.41519256908807, -72.49543882969665 23.227427435703994 M-72.37752370850318 23.623497346023417 C-72.40641383003144 23.52645713839777, -72.43530395155972 23.429416930772124, -72.49543882969665 23.227427435703994 M-72.49543882969665 23.227427435703994 C-72.51748085886214 23.122304178258155, -72.53952288802765 23.01718092081231, -72.58024401701361 22.82297295140367 M-72.49543882969665 23.227427435703994 C-72.5290837457231 23.066967473391223, -72.56272866174956 22.906507511078456, -72.58024401701361 22.82297295140367 M-72.58024401701361 22.82297295140367 C-72.59069866264988 22.7391008572274, -72.60115330828616 22.65522876305113, -72.63135996503335 22.412896727361662 M-72.58024401701361 22.82297295140367 C-72.60024557499426 22.662511027299445, -72.6202471329749 22.502049103195223, -72.63135996503335 22.412896727361662 M-72.63135996503335 22.412896727361662 C-72.6372350221868 22.270850941687122, -72.64311007934025 22.128805156012582, -72.6484375 22 M-72.63135996503335 22.412896727361662 C-72.63525383921704 22.318751529571532, -72.63914771340073 22.224606331781406, -72.6484375 22 M-72.6484375 22 C-72.6484375 22, -72.6484375 22, -72.6484375 22 M-72.6484375 22 C-72.6484375 22, -72.6484375 22, -72.6484375 22 M-72.6484375 22 C-72.6484375 11.870319891050409, -72.6484375 1.7406397821008177, -72.6484375 -22 M-72.6484375 22 C-72.6484375 7.442190929324562, -72.6484375 -7.1156181413508754, -72.6484375 -22 M-72.6484375 -22 C-72.6484375 -22, -72.6484375 -22, -72.6484375 -22 M-72.6484375 -22 C-72.6484375 -22, -72.6484375 -22, -72.6484375 -22 M-72.6484375 -22 C-72.64341271625811 -22.121488069957167, -72.63838793251624 -22.242976139914333, -72.63135996503335 -22.41289672736166 M-72.6484375 -22 C-72.64238923941312 -22.14623345860119, -72.63634097882623 -22.292466917202383, -72.63135996503335 -22.41289672736166 M-72.63135996503335 -22.41289672736166 C-72.61176150611864 -22.57012480079357, -72.59216304720393 -22.727352874225488, -72.58024401701361 -22.82297295140367 M-72.63135996503335 -22.41289672736166 C-72.62051979270336 -22.499861698359165, -72.60967962037337 -22.586826669356675, -72.58024401701361 -22.82297295140367 M-72.58024401701361 -22.82297295140367 C-72.55509552584557 -22.942911605489606, -72.52994703467753 -23.06285025957554, -72.49543882969665 -23.227427435703994 M-72.58024401701361 -22.82297295140367 C-72.5485553025194 -22.974103360808854, -72.5168665880252 -23.125233770214038, -72.49543882969665 -23.227427435703994 M-72.49543882969665 -23.227427435703994 C-72.45311668518676 -23.369585013213133, -72.41079454067686 -23.51174259072227, -72.37752370850318 -23.623497346023417 M-72.49543882969665 -23.227427435703994 C-72.46216737855738 -23.339184270073908, -72.42889592741811 -23.450941104443817, -72.37752370850318 -23.623497346023417 M-72.37752370850318 -23.623497346023417 C-72.34288718752379 -23.712263141764986, -72.3082506665444 -23.801028937506555, -72.22730413327528 -24.008477123264846 M-72.37752370850318 -23.623497346023417 C-72.34116269124137 -23.716682646970305, -72.30480167397954 -23.809867947917198, -72.22730413327528 -24.008477123264846 M-72.22730413327528 -24.008477123264846 C-72.18068424076381 -24.10383963762088, -72.13406434825235 -24.199202151976916, -72.04580625603245 -24.379736965185366 M-72.22730413327528 -24.008477123264846 C-72.16943055613469 -24.126859417465703, -72.11155697899409 -24.245241711666562, -72.04580625603245 -24.379736965185366 M-72.04580625603245 -24.379736965185366 C-71.96705273209156 -24.511902431401467, -71.88829920815068 -24.644067897617568, -71.83426989131264 -24.734740790612133 M-72.04580625603245 -24.379736965185366 C-71.97405869559546 -24.500144907592368, -71.90231113515847 -24.620552849999374, -71.83426989131264 -24.734740790612133 M-71.83426989131264 -24.734740790612133 C-71.75442443900207 -24.846571304617203, -71.67457898669147 -24.95840181862227, -71.59414004698196 -25.07106356344834 M-71.83426989131264 -24.734740790612133 C-71.76160203264668 -24.8365184592344, -71.68893417398073 -24.93829612785667, -71.59414004698196 -25.07106356344834 M-71.59414004698196 -25.07106356344834 C-71.49182686464115 -25.19186450956967, -71.38951368230035 -25.312665455690997, -71.32705705336566 -25.386407858128706 M-71.59414004698196 -25.07106356344834 C-71.53899057935378 -25.136178416834294, -71.4838411117256 -25.201293270220248, -71.32705705336566 -25.386407858128706 M-71.32705705336566 -25.386407858128706 C-71.22642846786802 -25.487036443626348, -71.12579988237037 -25.587665029123986, -71.0348453581287 -25.678619553365657 M-71.32705705336566 -25.386407858128706 C-71.24340861276596 -25.470056298728412, -71.15976017216624 -25.553704739328122, -71.0348453581287 -25.678619553365657 M-71.0348453581287 -25.678619553365657 C-70.92426954009323 -25.772272493979095, -70.81369372205775 -25.86592543459253, -70.71950106344833 -25.945702546981966 M-71.0348453581287 -25.678619553365657 C-70.92939035315766 -25.767935386550587, -70.82393534818661 -25.857251219735513, -70.71950106344833 -25.945702546981966 M-70.71950106344833 -25.945702546981966 C-70.6280143049349 -26.011022837055958, -70.53652754642147 -26.07634312712995, -70.38317829061214 -26.185832391312644 M-70.71950106344833 -25.945702546981966 C-70.62585423798691 -26.012565095213468, -70.5322074125255 -26.07942764344497, -70.38317829061214 -26.185832391312644 M-70.38317829061214 -26.185832391312644 C-70.25872672948837 -26.259989425514114, -70.13427516836461 -26.33414645971558, -70.02817446518537 -26.397368756032446 M-70.38317829061214 -26.185832391312644 C-70.30984542790708 -26.229529292810753, -70.23651256520202 -26.27322619430886, -70.02817446518537 -26.397368756032446 M-70.02817446518537 -26.397368756032446 C-69.93195535208251 -26.44440741415399, -69.83573623897965 -26.491446072275533, -69.65691462326485 -26.578866633275286 M-70.02817446518537 -26.397368756032446 C-69.92218878685937 -26.44918199695504, -69.81620310853337 -26.500995237877635, -69.65691462326485 -26.578866633275286 M-69.65691462326485 -26.578866633275286 C-69.56748367523171 -26.61376269748424, -69.47805272719856 -26.648658761693195, -69.27193484602341 -26.729086208503173 M-69.65691462326485 -26.578866633275286 C-69.55746146985366 -26.617673374158024, -69.45800831644247 -26.65648011504076, -69.27193484602341 -26.729086208503173 M-69.27193484602341 -26.729086208503173 C-69.15723379583672 -26.763234190668435, -69.04253274565 -26.797382172833697, -68.875864935704 -26.847001329696653 M-69.27193484602341 -26.729086208503173 C-69.18789789236776 -26.754105093596078, -69.10386093871209 -26.77912397868898, -68.875864935704 -26.847001329696653 M-68.875864935704 -26.847001329696653 C-68.75950042410135 -26.871400401994194, -68.6431359124987 -26.89579947429174, -68.47141045140367 -26.931806517013612 M-68.875864935704 -26.847001329696653 C-68.79320112258091 -26.86433410860839, -68.71053730945782 -26.881666887520126, -68.47141045140367 -26.931806517013612 M-68.47141045140367 -26.931806517013612 C-68.31826064274298 -26.95089662075474, -68.16511083408231 -26.969986724495868, -68.06133422736167 -26.982922465033347 M-68.47141045140367 -26.931806517013612 C-68.36636386784039 -26.94490055999944, -68.2613172842771 -26.957994602985266, -68.06133422736167 -26.982922465033347 M-68.06133422736167 -26.982922465033347 C-67.91631111864281 -26.988920665178803, -67.77128800992394 -26.99491886532426, -67.6484375 -27 M-68.06133422736167 -26.982922465033347 C-67.9459052524271 -26.98769664275136, -67.83047627749252 -26.99247082046937, -67.6484375 -27 M-67.6484375 -27 C-67.6484375 -27, -67.6484375 -27, -67.6484375 -27 M-67.6484375 -27 C-67.6484375 -27, -67.6484375 -27, -67.6484375 -27" stroke="#9370DB" stroke-width="1.3" fill="none" stroke-dasharray="0 0" style=""/></g><g class="label" style="" transform="translate(-57.6484375, -12)"><rect/><foreignObject width="115.296875" height="24"><div xmlns="http://www.w3.org/1999/xhtml" style="display: table-cell; white-space: nowrap; line-height: 1.5; max-width: 200px; text-align: center;"><span class="nodeLabel "><p>Analysis Worker</p></span></div></foreignObject></g></g><g class="node default tool-external " id="flowchart-api-2" transform="translate(219.96484375, 27.5)"><g class="basic label-container"><path d="M-66.59375 -19.5 C-51.141157632646056 -19.5, -35.68856526529211 -19.5, 0 -19.5 C18.7641097218553 -19.5, 37.5282194437106 -19.5, 66.59375 -19.5 C70.24156468530423 -12.204370629391553, 73.88937937060845 -4.908741258783106, 76.34375 0 C72.59201095582047 7.503478088359067, 68.84027191164094 15.006956176718134, 66.59375 19.5 C51.637894755823304 19.5, 36.68203951164661 19.5, 0 19.5 C-21.21997010763786 19.5, -42.43994021527572 19.5, -66.59375 19.5 C-68.65205823623909 15.383383527521834, -70.71036647247817 11.266767055043669, -76.34375 0 C-74.35392541294705 -3.979649174105893, -72.36410082589411 -7.959298348211786, -66.59375 -19.5" stroke="none" stroke-width="0" fill="#ECECFF" style=""/><path d="M-66.59375 -19.5 C-43.80544349006402 -19.5, -21.01713698012805 -19.5, 0 -19.5 M-66.59375 -19.5 C-51.131229683530194 -19.5, -35.66870936706039 -19.5, 0 -19.5 M0 -19.5 C22.312882945954453 -19.5, 44.625765891908905 -19.5, 66.59375 -19.5 M0 -19.5 C18.31206288748629 -19.5, 36.62412577497258 -19.5, 66.59375 -19.5 M66.59375 -19.5 C70.04561355230189 -12.596272895396218, 73.49747710460379 -5.692545790792435, 76.34375 0 M66.59375 -19.5 C68.57421289865641 -15.53907420268716, 70.55467579731284 -11.578148405374321, 76.34375 0 M76.34375 0 C74.05699418928728 4.5735116214254505, 71.77023837857455 9.147023242850901, 66.59375 19.5 M76.34375 0 C73.70973154346983 5.268036913060348, 71.07571308693966 10.536073826120695, 66.59375 19.5 M66.59375 19.5 C40.650830514915555 19.5, 14.707911029831102 19.5, 0 19.5 M66.59375 19.5 C51.011114608300474 19.5, 35.42847921660095 19.5, 0 19.5 M0 19.5 C-18.658041886271953 19.5, -37.316083772543905 19.5, -66.59375 19.5 M0 19.5 C-20.10549312413437 19.5, -40.21098624826874 19.5, -66.59375 19.5 M-66.59375 19.5 C-70.09913688009323 12.489226239813537, -73.60452376018647 5.478452479627075, -76.34375 0 M-66.59375 19.5 C-69.55785116675112 13.571797666497762, -72.52195233350224 7.643595332995524, -76.34375 0 M-76.34375 0 C-74.19960233776543 -4.288295324469159, -72.05545467553084 -8.576590648938318, -66.59375 -19.5 M-76.34375 0 C-73.11258401580633 -6.4623319683873195, -69.88141803161268 -12.924663936774639, -66.59375 -19.5" stroke="#9370DB" stroke-width="1.3" fill="none" stroke-dasharray="0 0" style=""/></g><g class="label" style="" transform="translate(-46.6875, -12)"><rect/><foreignObject width="93.375" height="24"><div xmlns="http://www.w3.org/1999/xhtml" style="display: table-cell; white-space: nowrap; line-height: 1.5; max-width: 200px; text-align: center;"><span class="nodeLabel "><p>API Gateway</p></span></div></foreignObject></g></g><g class="node default agent-supervisor " id="flowchart-supervisor-3" transform="translate(219.96484375, 208.9296875)"><polygon points="87.9296875,0 175.859375,-87.9296875 87.9296875,-175.859375 0,-87.9296875" class="label-container" transform="translate(-87.4296875, 87.9296875)"/><g class="label" style="" transform="translate(-60.9296875, -12)"><rect/><foreignObject width="121.859375" height="24"><div xmlns="http://www.w3.org/1999/xhtml" style="display: table-cell; white-space: nowrap; line-height: 1.5; max-width: 200px; text-align: center;"><span class="nodeLabel "><p>Supervisor Agent</p></span></div></foreignObject></g></g><g class="node default tool-database " id="flowchart-db-4" transform="translate(219.96484375, 583.3773612976074)"><path d="M0,10.011990407673862 a41.75,10.011990407673862 0,0,0 83.5,0 a41.75,10.011990407673862 0,0,0 -83.5,0 l0,49.01199040767386 a41.75,10.011990407673862 0,0,0 83.5,0 l0,-49.01199040767386" class="basic label-container" style="" label-offset-y="10.011990407673862" transform="translate(-41.75, -34.517985611510795)"/><g class="label" style="" transform="translate(-34.25, -2)"><rect/><foreignObject width="68.5" height="24"><div xmlns="http://www.w3.org/1999/xhtml" style="display: table-cell; white-space: nowrap; line-height: 1.5; max-width: 200px; text-align: center;"><span class="nodeLabel "><p>Database</p></span></div></foreignObject></g></g></g></g></g></svg>